<svg width="187" height="131" viewBox="0 0 187 131" fill="none" xmlns="http://www.w3.org/2000/svg">
<path opacity="0.67" d="M147.34 112.06C128.066 109.821 119.303 131 101.386 131C83.1563 131 74.4861 110.05 54.819 111.446C48.222 111.914 44.2159 115.19 38.3012 115.19C17.1481 115.19 0 97.9991 0 76.7932C0 55.5874 17.1481 38.3967 38.3012 38.3967C59.4543 38.3967 40.4414 38.5318 41.8147 38.556C69.5015 39.044 74.8813 0 101.386 0C136.235 0 143.983 34.9797 166.621 61.8107C174.994 71.7349 187 75.4205 187 88.0863C187 103.055 174.896 115.19 159.964 115.19C155.404 115.19 152.385 112.646 147.34 112.06Z" fill="url(#paint0_linear_106_1918)"/>
<defs>
<linearGradient id="paint0_linear_106_1918" x1="93.5" y1="0" x2="93.5" y2="131" gradientUnits="userSpaceOnUse">
<stop stop-color="#D9D9D9"/>
<stop offset="1" stop-color="#D9D9D9" stop-opacity="0"/>
</linearGradient>
</defs>
</svg>
